<?xml version="1.0" encoding="UTF-8" standalone="no"?>
<svg
   version="1.1"
   viewBox="0 0 656.29693 610.30547"
   enable-background="new 0 0 474.635 474.635"
   id="svg4"
   sodipodi:docname="yarn-ball-set.svg"
   width="656.29694"
   height="610.30548"
   inkscape:version="1.2.2 (b0a8486541, 2022-12-01)"
   xmlns:inkscape="http://www.inkscape.org/namespaces/inkscape"
   xmlns:sodipodi="http://sodipodi.sourceforge.net/DTD/sodipodi-0.dtd"
   xmlns="http://www.w3.org/2000/svg"
   xmlns:svg="http://www.w3.org/2000/svg">
  <defs
     id="defs8" />
  <sodipodi:namedview
     id="namedview6"
     pagecolor="#ffffff"
     bordercolor="#000000"
     borderopacity="0.25"
     inkscape:showpageshadow="2"
     inkscape:pageopacity="0.0"
     inkscape:pagecheckerboard="false"
     inkscape:deskcolor="#d1d1d1"
     showgrid="false"
     inkscape:zoom="0.7827067"
     inkscape:cx="-125.84535"
     inkscape:cy="271.49378"
     inkscape:window-width="2560"
     inkscape:window-height="996"
     inkscape:window-x="0"
     inkscape:window-y="0"
     inkscape:window-maximized="1"
     inkscape:current-layer="svg4" />
  <path
     d="M 329.60727,0.00101136 C 246.79124,-0.30638864 160.6993,69.491614 161.87627,167.733 c 1.18468,98.88567 83.30906,167.5427 167.731,167.731 90.40109,0.20164 167.09246,-79.33134 167.73,-167.731 C 498.0508,68.795944 416.71616,0.32434136 329.60727,0.00101136 Z M 473.34827,133.593 l -73.691,0.229 -5.748,-19.618 73.302,-0.228 c 2.485,6.339 4.54,12.89 6.137,19.617 z m 3.99,34.14 c 0,1.836 -0.045,3.661 -0.112,5.481 l -65.967,0.199 -5.746,-19.609 71.144,-0.221 c 0.445,4.659 0.681,9.377 0.681,14.15 z m -7.061,45.135 -47.416,0.145 -5.748,-19.617 58.017,-0.175 c -1.172,6.715 -2.803,13.273 -4.853,19.647 z m -82.223,-118.644995 -5.749,-19.618001 61.735,-0.193 c 5.019,6.143 9.556,12.692 13.549,19.596001 z m -11.604,-39.601002 -8.677,-29.611992 c 21.075,5.641 40.306,15.83499 56.571,29.461992 z m -30.727,-33.737992 76.685,261.701989 c -5.363,4.342 -11.033,8.318 -16.975,11.886 l -80.404,-274.392989 c 1.521,-0.047 3.046,-0.078 4.579,-0.078 5.445,0.001 10.82,0.306 16.115,0.883 z m 23.019,289.307989 -83.084,-283.515989 c 6.208,-1.938 12.594,-3.468 19.121,-4.577 l 82.524,281.628989 c -5.995,2.552 -12.194,4.713 -18.561,6.464 z m -39.76,5.264 -79.62,-271.701999 c 5.613,-3.645 11.488,-6.917 17.59,-9.787 L 349.06827,314.18 c -6.37,0.842 -12.865,1.283 -19.462,1.283 -0.208,10e-4 -0.415,-0.006 -0.624,-0.007 z m -79.904,-23.932 5.373,-18.339 7.589,25.897 c -4.458,-2.302 -8.781,-4.829 -12.962,-7.558 z m -32.524,-218.773996 c 4.838,-5.75 10.104,-11.127 15.752,-16.081001 l 75.359,257.162997 c -7.508,-1.123 -14.834,-2.807 -21.932,-5.019 z m 6.826,94.406996 -21.765,74.285 c -5.023,-8.688 -9.18,-17.935 -12.368,-27.618 l 23.904,-81.571 z m -21.542,-73.509995 0.893,3.046 -20.853,71.159995 c 0,-0.04 -10e-4,-0.08 -10e-4,-0.12 -0.001,-26.982 7.275,-52.293 19.961,-74.085995 z m 14.47,168.776995 17.493,-59.705 10.229,34.904 -11.993,40.933 c -5.641,-4.971 -10.9,-10.364 -15.729,-16.132 z m 222.432,4.775 -10.023,-34.204 33.449,-0.102 c -6.188,12.537 -14.097,24.079 -23.426,34.306 z"
     id="path2"
     sodipodi:nodetypes="ssssscccccsccccsccccccccccccccccccccccccccccccccccccccccccccccccccccccccccc" />
  <path
     d="M 167.74291,274.84209 C 84.926898,274.53469 -1.1650375,344.33271 0.01193301,442.57409 1.196613,541.45976 83.320988,610.11679 167.74291,610.30509 c 90.40109,0.20164 167.09246,-79.33134 167.73,-167.731 0.71353,-98.93705 -80.62111,-167.40867 -167.73,-167.732 z m 143.741,133.59201 -73.691,0.229 -5.748,-19.618 73.302,-0.228 c 2.485,6.339 4.54,12.89 6.137,19.617 z m 3.99,34.13999 c 0,1.836 -0.045,3.661 -0.112,5.481 l -65.967,0.199 -5.746,-19.609 71.144,-0.221 c 0.445,4.659 0.681,9.377 0.681,14.15 z m -7.061,45.135 -47.416,0.145 -5.748,-19.617 58.017,-0.175 c -1.172,6.715 -2.803,13.273 -4.853,19.647 z m -82.223,-118.64499 -5.749,-19.618 61.735,-0.193 c 5.019,6.143 9.556,12.692 13.549,19.596 z m -11.604,-39.601 -8.677,-29.61201 c 21.075,5.64101 40.306,15.83501 56.571,29.46201 z m -30.72701,-33.73801 76.68501,261.702 c -5.363,4.342 -11.033,8.318 -16.975,11.886 l -80.404,-274.393 c 1.521,-0.047 3.046,-0.078 4.579,-0.078 5.445,0.001 10.81999,0.306 16.11499,0.883 z m 23.01901,289.308 -83.08399,-283.516 c 6.208,-1.938 12.594,-3.468 19.121,-4.577 l 82.52399,281.629 c -5.995,2.552 -12.194,4.713 -18.561,6.464 z m -39.76,5.264 L 87.49793,318.5951 c 5.612997,-3.645 11.487989,-6.917 17.58999,-9.787 l 82.11598,280.21299 c -6.37,0.842 -12.865,1.283 -19.46199,1.283 -0.208,10e-4 -0.415,-0.006 -0.624,-0.007 z m -79.90398,-23.932 5.372997,-18.339 7.588993,25.897 c -4.458001,-2.302 -8.780993,-4.829 -12.96199,-7.558 z M 54.689928,347.5911 c 4.838,-5.75 10.104,-11.127 15.752,-16.081 l 75.358992,257.16299 c -7.508,-1.123 -14.834,-2.807 -21.932,-5.019 z m 6.826,94.40699 -21.765,74.285 c -5.023,-8.688 -9.18,-17.935 -12.367999,-27.618 L 51.286928,407.0941 Z m -21.542,-73.50999 0.893,3.046 -20.852999,71.15999 c 0,-0.04 -0.001,-0.08 -0.001,-0.12 -0.001,-26.98199 7.275,-52.29299 19.960999,-74.08599 z m 14.47,168.77699 17.493,-59.705 10.229,34.904 -11.993,40.933 c -5.641,-4.971 -10.9,-10.364 -15.729,-16.132 z m 222.431982,4.775 -10.023,-34.204 33.449,-0.102 c -6.188,12.537 -14.097,24.079 -23.426,34.306 z"
     id="path367" />
  <path
     d="m 488.56231,274.31764 c -82.81602,-0.3074 -168.90797,69.49062 -167.731,167.732 1.18468,98.88567 83.30907,167.5427 167.731,167.731 90.40109,0.20164 167.09245,-79.33134 167.72999,-167.731 0.71353,-98.93705 -80.6211,-167.40867 -167.72999,-167.732 z m 143.74099,133.59201 -73.69099,0.229 -5.748,-19.618 73.30199,-0.228 c 2.485,6.339 4.54,12.89 6.137,19.617 z m 3.99,34.13999 c 0,1.836 -0.045,3.661 -0.112,5.481 l -65.96699,0.199 -5.746,-19.609 71.14399,-0.221 c 0.445,4.659 0.681,9.377 0.681,14.15 z m -7.061,45.135 -47.41599,0.145 -5.748,-19.617 58.01699,-0.175 c -1.172,6.715 -2.803,13.273 -4.853,19.647 z m -82.22299,-118.64499 -5.749,-19.618 61.73499,-0.193 c 5.019,6.143 9.556,12.692 13.549,19.596 z m -11.604,-39.601 -8.677,-29.61201 c 21.075,5.64101 40.306,15.83501 56.571,29.46201 z m -30.72701,-33.73801 76.68501,261.702 c -5.363,4.342 -11.033,8.318 -16.975,11.886 l -80.404,-274.393 c 1.521,-0.047 3.046,-0.078 4.579,-0.078 5.445,0.001 10.81999,0.306 16.11499,0.883 z m 23.01901,289.308 -83.08399,-283.516 c 6.208,-1.938 12.594,-3.468 19.121,-4.577 l 82.52399,281.629 c -5.995,2.552 -12.194,4.713 -18.561,6.464 z m -39.76,5.264 -79.61999,-271.70199 c 5.613,-3.645 11.488,-6.917 17.59,-9.787 l 82.11598,280.21299 c -6.37,0.842 -12.865,1.283 -19.46199,1.283 -0.208,10e-4 -0.415,-0.006 -0.624,-0.007 z m -79.90399,-23.932 5.373,-18.339 7.589,25.897 c -4.458,-2.302 -8.781,-4.829 -12.962,-7.558 z M 375.50931,347.06665 c 4.838,-5.75 10.104,-11.127 15.752,-16.081 l 75.35901,257.16299 c -7.508,-1.123 -14.834,-2.807 -21.932,-5.019 z m 6.826,94.40699 -21.765,74.285 c -5.023,-8.688 -9.18,-17.935 -12.368,-27.618 l 23.904,-81.57099 z m -21.542,-73.50999 0.893,3.046 -20.853,71.15999 c 0,-0.04 -10e-4,-0.08 -10e-4,-0.12 -0.001,-26.98199 7.275,-52.29299 19.961,-74.08599 z m 14.47,168.77699 17.493,-59.705 10.22901,34.904 -11.99301,40.933 c -5.641,-4.971 -10.9,-10.364 -15.729,-16.132 z m 222.432,4.775 -10.023,-34.204 33.44899,-0.102 c -6.188,12.537 -14.097,24.079 -23.42599,34.306 z"
     id="path367-3" />
</svg>
