<?xml version="1.0" encoding="UTF-8" standalone="no"?>
<svg
   version="1.1"
   viewBox="0 0 474.635 474.635"
   enable-background="new 0 0 474.635 474.635"
   id="svg4"
   sodipodi:docname="yarn-ball-simple.svg"
   inkscape:version="1.2.2 (b0a8486541, 2022-12-01)"
   xmlns:inkscape="http://www.inkscape.org/namespaces/inkscape"
   xmlns:sodipodi="http://sodipodi.sourceforge.net/DTD/sodipodi-0.dtd"
   xmlns="http://www.w3.org/2000/svg"
   xmlns:svg="http://www.w3.org/2000/svg">
  <defs
     id="defs8" />
  <sodipodi:namedview
     id="namedview6"
     pagecolor="#ffffff"
     bordercolor="#000000"
     borderopacity="0.25"
     inkscape:showpageshadow="2"
     inkscape:pageopacity="0.0"
     inkscape:pagecheckerboard="0"
     inkscape:deskcolor="#d1d1d1"
     showgrid="false"
     inkscape:zoom="1.4709467"
     inkscape:cx="-18.695442"
     inkscape:cy="217.88688"
     inkscape:window-width="2560"
     inkscape:window-height="996"
     inkscape:window-x="0"
     inkscape:window-y="0"
     inkscape:window-maximized="1"
     inkscape:current-layer="svg4" />
  <path
     d="M 237.31,100.295 C 154.49397,99.987601 68.402034,169.78561 69.579,268.027 c 1.184685,98.88567 83.30906,167.5427 167.731,167.731 90.40109,0.20164 167.09246,-79.33134 167.73,-167.731 0.71353,-98.93706 -80.62111,-167.40867 -167.73,-167.732 z m 143.741,133.592 -73.691,0.229 -5.748,-19.618 73.302,-0.228 c 2.485,6.339 4.54,12.89 6.137,19.617 z m 3.99,34.14 c 0,1.836 -0.045,3.661 -0.112,5.481 l -65.967,0.199 -5.746,-19.609 71.144,-0.221 c 0.445,4.659 0.681,9.377 0.681,14.15 z m -7.061,45.135 -47.416,0.145 -5.748,-19.617 58.017,-0.175 c -1.172,6.715 -2.803,13.273 -4.853,19.647 z m -82.223,-118.645 -5.749,-19.618 61.735,-0.193 c 5.019,6.143 9.556,12.692 13.549,19.596 z m -11.604,-39.601 -8.677,-29.612 c 21.075,5.641 40.306,15.835 56.571,29.462 z m -30.727,-33.738 76.685,261.702 c -5.363,4.342 -11.033,8.318 -16.975,11.886 L 232.732,120.373 c 1.521,-0.047 3.046,-0.078 4.579,-0.078 5.445,0.001 10.82,0.306 16.115,0.883 z M 276.445,410.486 193.361,126.97 c 6.208,-1.938 12.594,-3.468 19.121,-4.577 l 82.524,281.629 c -5.995,2.552 -12.194,4.713 -18.561,6.464 z m -39.76,5.264 -79.62,-271.702 c 5.613,-3.645 11.488,-6.917 17.59,-9.787 l 82.116,280.213 c -6.37,0.842 -12.865,1.283 -19.462,1.283 -0.208,10e-4 -0.415,-0.006 -0.624,-0.007 z m -79.904,-23.932 5.373,-18.339 7.589,25.897 c -4.458,-2.302 -8.781,-4.829 -12.962,-7.558 z M 124.257,173.044 c 4.838,-5.75 10.104,-11.127 15.752,-16.081 l 75.359,257.163 c -7.508,-1.123 -14.834,-2.807 -21.932,-5.019 z m 6.826,94.407 -21.765,74.285 c -5.023,-8.688 -9.18,-17.935 -12.368,-27.618 l 23.904,-81.571 z m -21.542,-73.51 0.893,3.046 -20.853,71.16 c 0,-0.04 -0.001,-0.08 -0.001,-0.12 -0.001,-26.982 7.275,-52.293 19.961,-74.086 z m 14.47,168.777 17.493,-59.705 10.229,34.904 -11.993,40.933 c -5.641,-4.971 -10.9,-10.364 -15.729,-16.132 z m 222.432,4.775 -10.023,-34.204 33.449,-0.102 c -6.188,12.537 -14.097,24.079 -23.426,34.306 z"
     id="path2"
     sodipodi:nodetypes="ssssscccccsccccsccccccccccccccccccccccccccccccccccccccccccccccccccccccccccc" />
</svg>
